<?xml version="1.0" ?><!DOCTYPE svg  PUBLIC '-//W3C//DTD SVG 1.0//EN'  'http://www.w3.org/TR/2001/REC-SVG-20010904/DTD/svg10.dtd'><svg enable-background="new 0 0 256 256" height="256px" id="Layer_1" version="1.0" viewBox="0 0 256 256" width="256px" xml:space="preserve" xmlns="http://www.w3.org/2000/svg" xmlns:xlink="http://www.w3.org/1999/xlink"><g id="Card"><path d="M240,0H16C7.164,0,0,7.164,0,16v224c0,8.836,7.164,16,16,16h224c8.836,0,16-7.164,16-16   V16C256,7.164,248.836,0,240,0z" fill="#D6D6D6" id="browser_25_"/><path d="M232,48H24c-4.418,0-8,3.582-8,8v176c0,4.418,3.582,8,8,8h208c4.418,0,8-3.582,8-8V56   C240,51.582,236.418,48,232,48z" fill="#F6F6F6" id="screen_25_"/><path d="M32,24c0,4.418-3.582,8-8,8s-8-3.582-8-8s3.582-8,8-8S32,19.582,32,24z M56,16   c-4.418,0-8,3.582-8,8s3.582,8,8,8s8-3.582,8-8S60.418,16,56,16z M88,16c-4.418,0-8,3.582-8,8s3.582,8,8,8s8-3.582,8-8   S92.418,16,88,16z" fill="#FFFFFF" id="actions_25_"/><path d="M104,84c0,2.211-1.789,4-4,4H52c-2.211,0-4-1.789-4-4l0,0c0-2.211,1.789-4,4-4h48   C102.211,80,104,81.789,104,84L104,84z M104,132c0,2.211-1.789,4-4,4H52c-2.211,0-4-1.789-4-4l0,0c0-2.211,1.789-4,4-4h48   C102.211,128,104,129.789,104,132L104,132z M192,84c0,2.211-1.789,4-4,4h-48c-2.211,0-4-1.789-4-4l0,0c0-2.211,1.789-4,4-4h48   C190.211,80,192,81.789,192,84L192,84z" fill="#D6D6D6"/><path d="M120,112H48V96h72V112z M208,112h-72V96h72V112z M208,184H48v-40h160V184z" fill="#999999"/><path d="M136,204c0,2.211,1.789,4,4,4h64c2.211,0,4-1.789,4-4v-8c0-2.211-1.789-4-4-4h-64c-2.211,0-4,1.789-4,4V204   z" fill="#D6D6D6"/></g></svg>